<svg width="24" height="24" viewBox="0 0 24 24" fill="none" xmlns="http://www.w3.org/2000/svg">
<path d="M18.75 3C19.9926 3 21 4.00736 21 5.25V18.75C21 19.9926 19.9926 21 18.75 21H5.25C4.00736 21 3 19.9926 3 18.75V5.25C3 4.00736 4.00736 3 5.25 3H18.75ZM5.25 4.5C4.83579 4.5 4.5 4.83579 4.5 5.25V18.75C4.5 19.1642 4.83579 19.5 5.25 19.5H18.75C19.1642 19.5 19.5 19.1642 19.5 18.75V5.25C19.5 4.83579 19.1642 4.5 18.75 4.5H5.25ZM15 8.25C15.414 8.25025 15.75 8.58594 15.75 9V14.2539C15.75 14.668 15.414 15.0037 15 15.0039C14.5858 15.0039 14.25 14.6681 14.25 14.2539V10.7988L9.28125 15.7793C8.98889 16.0723 8.51396 16.0732 8.2207 15.7812C7.92764 15.4887 7.92625 15.0129 8.21875 14.7197L13.1787 9.75H10C9.58579 9.75 9.25 9.41421 9.25 9C9.25 8.58579 9.58579 8.25 10 8.25H15Z" fill="#141413"/>
</svg>
