<svg width="24" height="24" viewBox="0 0 24 24" fill="none" xmlns="http://www.w3.org/2000/svg">
<path d="M19.0498 3C20.1268 3 21 3.87324 21 4.9502V19.0498C21 20.1268 20.1268 21 19.0498 21H4.9502C3.87324 21 3 20.1268 3 19.0498V4.9502C3 3.87324 3.87324 3 4.9502 3H19.0498ZM19.5 12.1602C18.6566 12.2107 18.09 12.4735 17.6738 12.8164C17.191 13.2145 16.8507 13.7673 16.5469 14.4053C16.3939 14.7266 16.2626 15.0417 16.1182 15.3721C15.9794 15.6895 15.8282 16.0219 15.6533 16.3184C15.3037 16.9107 14.7536 17.5299 13.8154 17.5498C13.1508 17.5637 12.6827 17.1991 12.3633 16.8506C12.0696 16.5301 11.7716 16.068 11.542 15.7529C11.0294 15.0497 10.5254 14.5508 9.59961 14.5508C9.17076 14.5509 8.73892 14.7288 8.29492 15.084C7.84756 15.442 7.42709 15.9498 7.04492 16.5254C6.28368 17.6721 5.78521 18.8951 5.4873 19.5H19.0498C19.2983 19.5 19.5 19.2983 19.5 19.0498V12.1602ZM4.9502 4.5C4.70167 4.5 4.5 4.70167 4.5 4.9502V18.0732C4.80558 17.4202 5.24781 16.5194 5.79492 15.6953C6.22256 15.0512 6.7426 14.404 7.35742 13.9121C7.97567 13.4175 8.72879 13.0509 9.59961 13.0508C11.2738 13.0508 12.1678 14.066 12.7539 14.8701C13.0734 15.3085 13.2506 15.5988 13.4697 15.8379C13.6625 16.0481 13.7466 16.0516 13.7842 16.0508C13.9456 16.0473 14.1112 15.9794 14.3613 15.5557C14.4862 15.344 14.6069 15.0845 14.7441 14.7705C14.8758 14.4694 15.0257 14.111 15.1924 13.7607C15.5284 13.055 15.9841 12.2663 16.7207 11.6592C17.4189 11.0839 18.3208 10.7111 19.5 10.6572V4.9502C19.5 4.70167 19.2983 4.5 19.0498 4.5H4.9502ZM8.5 6.25C9.74264 6.25 10.75 7.25736 10.75 8.5C10.75 9.74264 9.74264 10.75 8.5 10.75C7.25736 10.75 6.25 9.74264 6.25 8.5C6.25 7.25736 7.25736 6.25 8.5 6.25ZM8.5 7.75C8.08579 7.75 7.75 8.08579 7.75 8.5C7.75 8.91421 8.08579 9.25 8.5 9.25C8.91421 9.25 9.25 8.91421 9.25 8.5C9.25 8.08579 8.91421 7.75 8.5 7.75Z" fill="#141413"/>
</svg>
