<svg width="24" height="24" viewBox="0 0 24 24" fill="none" xmlns="http://www.w3.org/2000/svg">
<path d="M14.25 2C14.6642 2 15 2.33579 15 2.75C15 3.16421 14.6642 3.5 14.25 3.5H12.75V4.5332C14.2029 4.65656 15.5534 5.13553 16.7168 5.88184L17.6357 4.57031C17.8732 4.23104 18.3404 4.14838 18.6797 4.38574C19.019 4.62323 19.1016 5.09037 18.8643 5.42969L17.9072 6.7959C19.6541 8.39563 20.75 10.6946 20.75 13.25C20.75 18.0825 16.8325 22 12 22C7.16751 22 3.25 18.0825 3.25 13.25C3.25 8.6702 6.76866 4.91369 11.25 4.5332V3.5H9.75C9.33579 3.5 9 3.16421 9 2.75C9 2.33579 9.33579 2 9.75 2H14.25ZM12 6C7.99594 6 4.75 9.24594 4.75 13.25C4.75 17.2541 7.99594 20.5 12 20.5C16.0041 20.5 19.25 17.2541 19.25 13.25C19.25 9.24594 16.0041 6 12 6ZM8.38379 9.13379C8.56107 8.9565 8.81566 8.87958 9.06152 8.92871H9.0625L9.06445 8.92969C9.06647 8.93009 9.06974 8.93091 9.07324 8.93164C9.08082 8.93318 9.09257 8.93559 9.10645 8.93848C9.13445 8.94429 9.17539 8.95181 9.22656 8.96289C9.32954 8.9852 9.47695 9.01886 9.65625 9.06152C10.0145 9.14675 10.5063 9.27231 11.0332 9.43262C11.5577 9.5922 12.1317 9.79055 12.6514 10.0234C13.1554 10.2494 13.6764 10.5378 14.04 10.9014C15.1137 11.9753 15.1139 13.7162 14.04 14.79C12.9662 15.8638 11.2253 15.8637 10.1514 14.79C9.78776 14.4264 9.49937 13.9054 9.27344 13.4014C9.04047 12.8816 8.84222 12.3069 8.68262 11.7822C8.52236 11.2554 8.39673 10.7644 8.31152 10.4062C8.26886 10.2269 8.2352 10.0795 8.21289 9.97656C8.20181 9.92537 8.1943 9.88446 8.18848 9.85645C8.18559 9.84255 8.18319 9.83083 8.18164 9.82324C8.18091 9.81972 8.1801 9.81648 8.17969 9.81445L8.17871 9.8125V9.81152C8.12958 9.56568 8.20652 9.31107 8.38379 9.13379ZM10.1182 11.3457C10.2677 11.8371 10.4449 12.346 10.6426 12.7871C10.8473 13.2438 11.0454 13.5629 11.2119 13.7295C11.7001 14.2173 12.4914 14.2175 12.9795 13.7295C13.4675 13.2414 13.4673 12.4501 12.9795 11.9619C12.8129 11.7954 12.4938 11.5973 12.0371 11.3926C11.596 11.1949 11.0871 11.0177 10.5957 10.8682C10.3626 10.7973 10.1363 10.7328 9.92676 10.6768C9.98281 10.8863 10.0473 11.1126 10.1182 11.3457Z" fill="#141413"/>
</svg>
